<svg version="1" xmlns="http://www.w3.org/2000/svg" width="1365.333" height="1365.333" viewBox="0 0 1024.000000 1024.000000"><path d="M828.1 7.2c-8.1 52.3-8 113.1.5 167.8 11.8 76.3 36.6 141.9 80.9 213.4 3.2 5.2 18.1 26.5 21.3 30.6 1.1 1.4 4.3 5.4 7.1 9 2.8 3.6 5.5 7.1 6.2 7.8.6.7 3.3 4.1 6.1 7.5 2.8 3.4 5.9 7.1 7 8.2 1 1.1 4.4 4.9 7.6 8.4 7.2 8.1 27.9 28.8 36.3 36.3 13.5 12.1 21.4 18.8 22.3 18.8.3 0 .5-78 .3-173.3-.3-188.7 0-175.4-5.8-198.2-12.1-47.6-43.2-89.6-85.4-115.5-27.6-17-65.3-28-96.1-28h-7.1l-1.2 7.2zM106.5 244.8c-4.8 2.3-6.9 4.5-9 9.5-1.3 3.2-1.5 13.9-1.5 84 0 58.1.3 81.3 1.2 83.8 3 9 9.4 13.2 19.9 13.2 8.5 0 14-2.9 17.7-9.3l2.7-4.5.3-30.8.3-30.7h14.2c16 0 19.7 1.1 25.3 7.1 1.8 1.9 11.6 16 21.9 31.4 10.4 15.4 20 29.3 21.4 30.9 12.9 14.3 39.8 3.2 35.1-14.5-1.5-5.5-27.5-44.3-33.2-49.5-5.2-4.8-7.7-6.3-13.3-7.9l-4-1.2 6-1.7c19.1-5.6 32.6-18.7 38.1-37.1 1.4-4.4 1.8-9.1 1.8-18-.1-10.3-.5-13.1-2.7-19.8-1.5-4.2-3.9-9.6-5.3-11.8-6.2-9.9-18.4-18.1-33.1-22.1-7.4-2.1-10.3-2.2-53.8-2.5-43.3-.3-46.2-.2-50 1.5zm89.2 32.6c10 3.2 15.3 10.2 16.1 21.6.8 11.7-2.9 19.6-11.4 24.2-7.1 3.9-15 4.8-40.6 4.8H137v-53.2l26.8.4c21.4.4 27.7.8 31.9 2.2zM730 263.2c-8.2 4.2-9.9 8.9-10 26.5V301h-8.2c-14.4.1-20.1 4.5-20.2 15.7-.1 9.8 5.3 14 19.2 14.9l9 .7.4 32.6c.4 30 .6 33.1 2.6 39.1 3.9 11.8 10.3 19.4 20.8 24.6 8.4 4.1 15.1 5.5 29.4 6.1 12.5.5 13.9.4 17.7-1.5 6.3-3.3 8.3-6.4 8.3-13.2 0-4.3-.5-6.4-2.1-8.4-3-3.8-4.7-4.5-16.3-6-19.3-2.5-19-1.9-19.4-42.2l-.3-31.1 12.9-.5c14.1-.5 18.9-2 22.5-7 2.5-3.4 2.7-12 .3-16.6-2.8-5.5-6.4-6.6-21.8-7l-13.8-.4v-13.2c0-11.9-.2-13.7-2.3-17.6-3.2-6.1-8.9-9-17.6-9-5 0-7.8.6-11.1 2.2zM324.2 300c-15.2 4-27.5 12.7-36 25.5-11.4 16.9-14.9 40.9-9.2 63.1 10.6 41.2 56.4 58.5 104.9 39.8 15.8-6.2 21.4-16.1 15.5-27.6-2-3.9-5.7-6-10.3-6-2.1 0-9.1 2.1-15.6 4.7-13.5 5.3-22.5 6.8-32.1 5.4-12.3-1.7-19.8-8.1-23.4-19.7-3.5-11.3-7.8-10.2 38.1-10.2h40.1l2.9-2.9c2.8-2.8 2.9-3.3 2.9-11.8-.1-30.6-17.4-54.5-44.2-60.8-8.9-2.1-24.6-1.8-33.6.5zm27.1 27.1c8.2 2.2 14.8 11.4 16.3 22.7l.7 5.2h-26.2c-29.9 0-27.6.9-24.2-9.9 2-6.6 5.7-12.1 9.7-14.7 6.3-4.2 15.9-5.5 23.7-3.3zM465.5 299.6c-16.5 2.9-31.2 8.9-35.8 14.4-5.1 6-4.4 17.6 1.4 22.4 4.4 3.7 8.9 3.4 24.3-1.8 34.4-11.6 49.6-7 49.6 15.1v5.3h-11.9c-32.8 0-55.6 5.8-64.6 16.3-8.2 9.6-9.5 27-2.9 40.5 5.5 11.3 18.8 20.7 32.9 23.3 8.3 1.5 20.8.6 27.6-2 6.4-2.4 14.2-8.8 16.6-13.5 1.5-2.8 1.7-2.9 2.4-1.1.4 1.1 1 3.2 1.3 4.7.7 3.3 5 8.4 8.5 10.2 4.3 2.2 9.5 2.7 14.9 1.5 6.3-1.3 9.9-4 12.3-9.3 1.7-3.8 1.9-7.2 1.8-41.6 0-42.2-.6-48.7-6.2-60.3-6.2-13.1-17.3-21.2-33.3-24.2-9.4-1.9-28.3-1.8-38.9.1zm39.5 80.2c0 15-9.7 26.5-23.6 27.9-11.1 1.2-19.2-4.9-20.2-14.9-1.2-12.5 8.1-17.5 32.6-17.7l11.2-.1v4.8zM620.5 299.6c-3.8.8-11.2 3.5-16.4 6.1-25.7 12.5-39.1 40.1-35.1 72.3 2.9 24.2 14.1 41.1 33.5 50.5 12.3 6.1 22.2 7.9 37.9 7.2 13.7-.6 21.8-2.4 32.6-7.4 11.7-5.3 15.1-9.6 15.1-18.6 0-6.4-1.3-10-4.7-13.2-4.3-4-9.5-3.4-22.7 2.7-10.3 4.7-11.8 5.2-18.7 5.2-4.1 0-9.4-.5-11.7-1.2-5.7-1.7-13.5-9-16.1-15-4.7-11-5.2-28.7-1.1-39.7 3.1-8.2 7-12.9 13.6-16.1 5-2.5 7-2.9 14.3-2.9 8.2 0 8.9.2 19.7 5.2 13.1 6.2 18.3 6.9 22.7 2.8 1.4-1.3 3.1-3.7 3.7-5.2 1.5-4 1.3-12.7-.4-16-7.1-13.5-40.6-22-66.2-16.7zM239.5 481.1c-62.9 5.5-112.2 17.1-167 39.1-14.2 5.7-50 22.8-59.2 28.3-2.4 1.4-6.2 3.6-8.5 4.9l-4.3 2.4-.3 141.9C0 796.9.2 843 1 851c5 51.1 30.1 98 69.8 130.3 28 22.8 64.7 37.9 101.1 41.6 7 .8 113.9 1.1 334.2 1.1 307.8 0 323.9-.1 323.9-1.8-.1-17.4-3.6-57.1-7-79.2-7.1-45.9-16.8-79.3-38.8-134-1.4-3.5-7.3-15.9-13.2-27.5-9-17.8-15-28.3-29.4-51.9-2.5-4-19.4-28.2-21.7-31-1-1.1-6.6-8.2-12.6-15.6-5.9-7.4-11.7-14.4-12.8-15.6-1.1-1.1-3.5-3.8-5.3-6-6.9-8.2-30.9-32-46.2-45.7-4.8-4.3-25.4-21-28.6-23.2-2.1-1.4-4.1-3-4.4-3.4-.8-1.2-16.7-12.3-27.5-19.3-41.7-27-82-46.6-126-61.3-43.3-14.5-85.5-23.2-131.3-27-19.5-1.6-69.4-1.9-85.7-.4zm224.6 82.4c13.2 9.3 11 29.5-3.9 35.2-6.5 2.5-17.4 2.3-22.7-.5-8-4.1-11.5-9.9-11.5-18.9 0-7.9 4-13.9 11.5-17.5 3.2-1.5 5.8-1.8 13.2-1.6 8.3.3 9.5.6 13.4 3.3zM533 568c1.9 1 4.3 2.7 5.3 3.8 4.6 5.1 4.6 5.1 4.7 90.2 0 53.2-.4 81.8-1.1 84.3-3.2 11.8-18.4 17.1-30.8 10.7-2.2-1.1-5-3.4-6.3-5.2l-2.3-3.3-.3-84.8c-.2-77.6-.1-85.1 1.4-88.4 4.2-8.7 19.1-12.4 29.4-7.3zm-331 0c35.4 5.6 53.7 29.8 49.2 65.2-2.6 21.4-15.5 36.9-36.6 44.4l-7.8 2.7 5.1 1.9c8.6 3.2 15 10.2 30.1 32.9 15.6 23.4 16.7 26.2 13.2 34.1-5.4 12.3-24.7 14.7-34.3 4.2-1.5-1.6-11.5-16.1-22.4-32.2-10.8-16-21.2-30.5-23.2-32.1-5-4.1-9.5-5.1-24.1-5.1h-13.1l-.3 30.7c-.3 29.6-.4 31-2.5 35-2.8 5.2-6.7 8-13.2 9.5-10 2.3-20.4-2.3-24.2-10.6-1.8-3.9-1.9-8.2-1.9-85.8 0-55.3.3-82.6 1.1-84.5 1.4-3.7 5.7-8.2 9.4-9.9 3.7-1.7 85.2-2 95.5-.4zm159.4 56c19.7 5 30.8 16.8 35 37.2 2.2 10.6 2.4 83 .2 88.1-1.7 4.2-6.6 8.3-11.4 9.7-11.4 3.1-21.5-2.1-25.2-13-1.1-3-1.9-5-2-4.3 0 .6-2.2 3.6-5 6.6-7.1 7.7-14.6 11-26.9 11.5-16 .8-28.7-3.6-38.5-13.2-11.6-11.2-15.3-27.4-10.1-42.8 5.8-16.7 28.1-24.8 68.6-24.8h13.2l-.5-6.9c-.9-12.2-5.2-17.3-16-19-7.7-1.3-17.5.4-32.8 5.6-7.4 2.5-15.2 4.5-17.3 4.6-11.7 0-17.1-16.8-8.4-26.2 4.7-4.9 19.8-10.9 34.9-13.6 11.7-2.1 33-1.9 42.2.5zm94.9-.9c5.7 1.5 11.2 7 12.6 12.4 1.5 5.9 1.5 105.4 0 110.8-3.2 11.8-18.4 17.1-30.8 10.7-2.2-1.1-5-3.4-6.3-5.2l-2.3-3.3-.3-56.2c-.3-62.1-.4-60.8 5.9-65.6 5.8-4.3 13.8-5.7 21.2-3.6z"/><path d="M137.5 600.2c-.3.7-.4 12.6-.3 26.3l.3 25h25c27.3 0 32.3-.7 39.8-5.5 6.4-4.1 9.2-10.2 9.2-20.5 0-13.4-4.8-20.3-16.9-24.1-7.1-2.3-56.3-3.4-57.1-1.2zM333.4 700c-11.7 1.7-17.1 5.6-18.1 12.9-1.8 13.1 10.5 21.9 24.8 17.8 10.8-3.2 17.6-12.4 18.7-25.4l.5-6.3-10.4.1c-5.7.1-12.7.5-15.5.9z"/></svg>