<?xml version="1.0" standalone="no"?>
<!DOCTYPE svg PUBLIC "-//W3C//DTD SVG 20010904//EN"
 "http://www.w3.org/TR/2001/REC-SVG-20010904/DTD/svg10.dtd">
<svg version="1.0" xmlns="http://www.w3.org/2000/svg"
 width="1024.000000pt" height="1024.000000pt" viewBox="0 0 1024.000000 1024.000000"
 preserveAspectRatio="xMidYMid meet">
<metadata>
Created by potrace 1.11, written by Peter Selinger 2001-2013
</metadata>
<g transform="translate(0.000000,1024.000000) scale(0.100000,-0.100000)"
fill="#000000" stroke="none">
<path d="M1265 8220 c-139 -21 -262 -77 -341 -156 -31 -31 -52 -59 -49 -62 4
-4 1283 -7 2843 -8 1561 0 2855 -3 2877 -6 22 -3 87 -11 145 -17 232 -26 557
-92 705 -145 331 -117 504 -215 667 -378 111 -110 199 -264 239 -418 18 -72
21 -104 17 -220 -4 -135 -5 -136 -45 -220 -47 -97 -115 -173 -212 -239 -75
-51 -255 -138 -368 -177 -44 -15 -96 -40 -115 -55 -30 -25 -33 -32 -32 -80 l1
-52 90 -86 c152 -145 395 -375 452 -427 29 -27 68 -62 85 -79 18 -16 85 -79
151 -140 65 -60 125 -117 134 -126 9 -8 52 -49 96 -90 269 -249 324 -299 358
-330 20 -19 37 -37 37 -41 0 -5 -195 -8 -432 -8 -324 1 -439 4 -455 13 -24 13
-637 604 -1060 1022 -140 138 -266 255 -281 262 -20 9 -162 12 -539 13 l-512
0 -54 -24 c-78 -34 -110 -80 -115 -165 -3 -55 6 -103 53 -291 107 -422 165
-685 165 -746 0 -18 -8 -41 -17 -53 l-18 -21 -1348 0 c-741 -1 -1354 3 -1362
7 -8 5 -103 128 -211 273 -108 146 -206 276 -219 290 -29 32 -261 339 -312
412 -57 83 -187 250 -214 275 -14 12 -42 30 -64 40 -37 16 -86 18 -587 21
l-548 3 0 -126 c0 -122 0 -125 23 -127 12 -2 222 -3 467 -3 l445 0 98 -130
c54 -71 115 -155 135 -185 20 -30 54 -75 74 -99 21 -24 58 -75 83 -112 25 -37
51 -71 58 -76 8 -4 44 -48 81 -98 62 -85 142 -191 229 -306 21 -28 36 -54 32
-57 -4 -4 -391 -8 -861 -10 -477 -1 -854 -6 -854 -11 0 -18 108 -107 166 -138
70 -37 182 -69 275 -78 l67 -7 4 -72 c3 -45 13 -86 26 -113 25 -48 85 -102
133 -119 30 -11 15 -13 -114 -13 -162 -1 -194 -9 -215 -56 -15 -33 -15 -107 0
-140 24 -53 41 -55 378 -55 337 0 354 2 378 55 16 34 15 114 -2 144 -7 13 -24
30 -37 37 -21 12 -12 13 76 13 88 0 97 -1 76 -13 -34 -19 -50 -54 -51 -109 0
-59 20 -101 57 -116 21 -8 166 -11 537 -9 l508 3 24 28 c20 23 24 39 24 92 0
53 -4 69 -24 92 l-24 28 -389 5 c-213 3 -380 7 -370 8 31 4 91 39 124 74 41
43 73 116 80 183 l6 53 101 7 c55 3 364 4 686 1 322 -2 673 -5 781 -5 l196 -1
5 -72 c3 -47 12 -88 26 -115 25 -48 85 -102 133 -119 28 -10 -78 -13 -544 -13
-634 -1 -620 0 -652 -61 -19 -37 -19 -93 0 -130 33 -64 -77 -60 1600 -60 1421
0 1529 1 1556 17 79 47 75 179 -6 217 -29 14 -104 16 -587 17 -304 0 -542 4
-528 8 108 33 184 132 197 257 l6 54 66 0 c157 0 277 44 354 130 100 111 101
253 7 625 -62 244 -111 455 -117 502 -5 38 -3 43 18 51 13 4 195 6 403 4 l379
-4 644 -642 c354 -352 656 -646 671 -653 15 -7 48 -12 73 -13 l46 0 5 -72 c3
-46 13 -88 26 -114 26 -52 90 -110 133 -120 20 -6 -275 -11 -724 -14 l-759 -5
-29 -33 c-25 -27 -29 -41 -29 -87 0 -46 4 -60 29 -87 l29 -33 1346 -3 c1192
-2 1350 0 1376 13 79 41 80 179 0 220 -23 12 -70 15 -227 15 -174 1 -194 2
-162 14 107 38 189 157 189 273 0 23 5 35 18 39 94 29 122 73 102 161 -10 49
-19 59 -132 165 -67 62 -133 124 -148 138 -15 14 -44 41 -66 60 -21 19 -77 71
-124 115 -172 161 -366 341 -419 390 -31 28 -145 136 -256 240 -110 105 -221
210 -248 234 -26 25 -46 48 -45 53 2 5 42 26 88 47 78 35 133 67 251 145 103
69 232 221 280 334 53 120 64 179 63 337 -1 144 -3 154 -37 258 -71 210 -153
345 -299 489 -88 87 -126 116 -263 209 -165 111 -461 235 -693 290 -221 52
-502 100 -697 119 -129 12 -5340 12 -5420 0z m1103 -3817 c2 -18 -2 -41 -8
-53 -10 -20 -18 -20 -379 -20 l-369 0 -5 22 c-3 11 0 36 8 55 l14 33 368 -2
368 -3 3 -32z m2970 0 c2 -18 -2 -41 -8 -53 -10 -20 -18 -20 -379 -20 l-369 0
-5 22 c-3 11 0 36 8 55 l14 33 368 -2 368 -3 3 -32z m3750 -1 c2 -22 -3 -41
-14 -53 -16 -18 -36 -19 -380 -19 l-364 0 -6 24 c-3 14 1 37 11 55 l16 31 367
-2 367 -3 3 -33z"/>
<path d="M874 7636 c-3 -7 -3 -61 -2 -122 l3 -109 405 0 c416 -1 468 -5 625
-45 146 -37 270 -145 296 -257 13 -56 10 -203 -5 -245 -33 -93 -147 -189 -272
-230 -159 -53 -269 -61 -681 -54 l-373 6 0 -125 0 -125 419 0 c443 0 570 9
731 50 291 76 506 262 551 479 15 75 7 252 -16 321 -82 250 -372 420 -785 459
-161 15 -890 13 -896 -3z"/>
<path d="M5273 7621 c-21 -13 -36 -33 -43 -58 -11 -34 -3 -72 73 -393 47 -195
107 -445 132 -555 26 -110 54 -212 63 -227 35 -59 24 -58 680 -58 359 0 632 4
679 10 150 20 327 82 439 152 65 41 161 153 185 217 33 84 38 247 10 338 -57
186 -209 349 -426 456 -105 51 -176 74 -320 104 l-130 27 -655 3 c-638 3 -656
3 -687 -16z m1417 -249 c143 -34 188 -50 272 -100 110 -65 160 -119 220 -242
19 -37 23 -62 23 -141 0 -93 -1 -99 -31 -140 -56 -78 -172 -133 -349 -164 -62
-11 -191 -15 -577 -15 l-497 0 -10 38 c-11 43 -47 200 -91 397 -18 77 -45 191
-61 253 -16 62 -29 120 -29 128 0 13 63 15 518 12 492 -4 522 -5 612 -26z"/>
<path d="M721 4096 c-34 -19 -50 -54 -51 -108 0 -110 30 -128 219 -128 135 0
140 1 170 26 29 24 31 30 31 99 0 69 -2 75 -31 99 -30 25 -34 26 -172 26 -99
-1 -149 -5 -166 -14z"/>
<path d="M8134 3156 c-45 -20 -64 -52 -64 -109 0 -40 5 -54 28 -77 54 -53 167
-49 212 7 27 35 27 111 0 146 -34 43 -117 58 -176 33z"/>
<path d="M8552 3125 c-61 -27 -62 -32 -62 -552 0 -535 -1 -525 78 -553 37 -13
47 -13 85 0 78 28 77 18 77 553 0 523 0 526 -64 552 -44 18 -71 18 -114 0z"/>
<path d="M1585 3121 c-11 -5 -29 -19 -40 -31 -19 -21 -20 -38 -23 -504 -2
-443 -1 -484 15 -516 37 -74 160 -78 203 -7 18 29 20 51 20 210 l0 177 89 0
c75 0 93 -3 121 -22 19 -14 83 -99 154 -203 98 -146 128 -183 159 -199 49 -23
100 -15 139 24 46 47 39 72 -62 224 -88 132 -119 164 -176 187 l-29 11 42 13
c87 26 157 88 195 170 33 73 33 217 -1 293 -32 71 -96 126 -180 154 -60 19
-91 22 -336 25 -148 1 -279 -1 -290 -6z m542 -204 c43 -23 63 -64 63 -127 0
-63 -20 -104 -63 -127 -26 -15 -63 -19 -199 -21 l-168 -4 0 152 0 152 168 -4
c136 -2 173 -6 199 -21z"/>
<path d="M6205 3121 c-11 -5 -29 -19 -40 -31 -19 -21 -20 -38 -23 -504 -2
-443 -1 -484 15 -516 37 -74 160 -78 203 -7 18 29 20 51 20 210 l0 177 89 0
c75 0 93 -3 121 -22 19 -14 83 -99 154 -203 98 -146 128 -183 159 -199 49 -23
100 -15 139 24 46 47 39 72 -62 224 -88 132 -119 164 -176 187 l-29 11 42 13
c87 26 157 88 195 170 33 73 33 217 -1 293 -32 71 -96 126 -180 154 -60 19
-91 22 -336 25 -148 1 -279 -1 -290 -6z m542 -204 c18 -9 39 -31 48 -47 19
-37 19 -123 0 -160 -29 -55 -62 -65 -247 -68 l-168 -4 0 152 0 152 168 -4
c136 -2 173 -6 199 -21z"/>
<path d="M5178 2992 c-30 -28 -32 -33 -36 -115 l-5 -87 -37 0 c-49 0 -98 -18
-110 -40 -6 -10 -10 -33 -10 -50 0 -17 4 -40 10 -50 12 -22 61 -40 111 -40
l39 0 0 -152 c0 -84 5 -182 10 -218 22 -133 96 -200 246 -221 124 -18 204 14
204 80 0 51 -28 72 -104 80 -58 6 -73 12 -92 35 -23 26 -24 32 -24 212 l0 184
64 0 c108 0 146 23 146 90 0 67 -38 90 -146 90 l-64 0 0 69 c0 122 -30 161
-124 161 -36 0 -52 -6 -78 -28z"/>
<path d="M2840 2785 c-110 -31 -190 -99 -239 -204 -24 -51 -26 -67 -26 -176 0
-111 2 -125 29 -182 73 -160 259 -239 463 -199 167 33 239 89 217 168 -6 19
-21 39 -36 48 -25 14 -34 12 -123 -19 -80 -28 -105 -33 -163 -29 -98 5 -143
43 -167 141 l-7 27 229 0 c284 0 277 -3 271 109 -11 188 -133 314 -318 326
-51 3 -93 0 -130 -10z m187 -165 c34 -21 56 -56 68 -107 l7 -33 -156 0 c-86 0
-156 4 -156 9 0 44 54 124 95 141 37 16 109 11 142 -10z"/>
<path d="M3675 2791 c-117 -19 -202 -54 -229 -93 -18 -26 -21 -71 -5 -99 20
-38 50 -40 159 -8 170 48 259 36 279 -39 20 -69 18 -72 -46 -72 -93 0 -232
-18 -291 -36 -30 -10 -69 -31 -87 -48 -80 -76 -70 -222 20 -305 63 -58 106
-74 200 -75 70 -1 86 3 126 26 25 15 54 39 64 54 l18 27 12 -37 c15 -42 37
-62 78 -71 43 -10 84 4 112 37 l27 31 -4 246 c-3 228 -5 250 -26 303 -27 67
-81 119 -151 143 -55 19 -186 27 -256 16z m211 -468 c-12 -92 -73 -153 -153
-153 -116 0 -147 161 -36 186 16 3 33 7 38 9 6 2 43 4 84 4 l74 1 -7 -47z"/>
<path d="M4548 2784 c-119 -28 -202 -94 -254 -200 -27 -56 -29 -66 -29 -184 0
-114 2 -130 26 -181 71 -152 236 -228 432 -201 105 15 199 59 217 102 24 57
-9 130 -57 130 -14 0 -57 -14 -95 -31 -60 -26 -81 -30 -130 -27 -107 8 -159
77 -159 213 0 136 52 205 159 213 49 3 70 -1 130 -27 38 -17 81 -31 95 -31 32
0 58 30 64 77 9 69 -56 121 -186 149 -81 17 -139 17 -213 -2z"/>
<path d="M7465 2791 c-117 -19 -202 -54 -229 -93 -18 -26 -21 -71 -5 -99 20
-38 50 -40 159 -8 170 48 259 36 279 -39 20 -69 18 -72 -46 -72 -93 0 -232
-18 -291 -36 -30 -10 -69 -31 -87 -48 -80 -76 -70 -222 20 -305 63 -58 106
-74 200 -75 70 -1 86 3 126 26 25 15 54 39 64 54 l18 27 12 -37 c15 -42 37
-62 78 -71 43 -10 84 4 112 37 l27 31 -4 246 c-3 228 -5 250 -26 303 -27 67
-81 119 -151 143 -55 19 -186 27 -256 16z m211 -468 c-12 -92 -73 -153 -153
-153 -116 0 -147 161 -36 186 16 3 33 7 38 9 6 2 43 4 84 4 l74 1 -7 -47z"/>
<path d="M8142 2785 c-58 -25 -62 -48 -62 -382 0 -345 2 -357 78 -383 37 -13
47 -13 85 0 75 26 77 38 77 383 0 337 -3 357 -64 382 -44 18 -71 18 -114 0z"/>
</g>
</svg>
